<svg width="120" height="120" viewBox="0 0 120 120" fill="none" xmlns="http://www.w3.org/2000/svg">
<mask id="mask0_186_255" style="mask-type:luminance" maskUnits="userSpaceOnUse" x="1" y="3" width="118" height="115">
<path d="M118.64 3H1V118H118.64V3Z" fill="white"/>
</mask>
<g mask="url(#mask0_186_255)">
<path d="M97.8078 3H21.832C10.3268 3 1 12.3513 1 23.8867V97.1133C1 108.649 10.3268 118 21.832 118H97.8078C109.313 118 118.64 108.649 118.64 97.1133V23.8867C118.64 12.3513 109.313 3 97.8078 3Z" fill="#001E36"/>
<path d="M27.4894 83.6447V33.0846C27.4894 32.7161 27.6472 32.5307 27.9629 32.5307C28.8038 32.5307 29.5715 32.5183 30.7295 32.4912C31.8862 32.4651 33.1357 32.4388 34.478 32.4121C35.8197 32.3859 37.2402 32.3596 38.7396 32.3329C40.2389 32.3069 41.7251 32.2938 43.1982 32.2932C47.1959 32.2932 50.563 32.7943 53.2995 33.7967C55.7681 34.6339 58.0192 36.0123 59.8892 37.8319C61.4745 39.4091 62.6995 41.3124 63.4799 43.4103C64.2181 45.4519 64.5921 47.6079 64.5848 49.7797C64.5848 54.0005 63.6115 57.4819 61.6649 60.224C59.7054 62.9775 56.9511 65.0625 53.7732 66.1979C50.4587 67.4379 46.7754 67.8584 42.7248 67.8584C41.5669 67.8584 40.7514 67.8453 40.2783 67.8189C39.8049 67.7929 39.0947 67.7796 38.1478 67.7793V83.5657C38.1615 83.6624 38.1526 83.761 38.1218 83.8538C38.091 83.9465 38.0391 84.0307 37.9701 84.0997C37.9012 84.1688 37.8171 84.2209 37.7247 84.2518C37.6322 84.2827 37.5338 84.2916 37.4374 84.2778H28.0418C27.6732 84.2778 27.4894 84.0675 27.4894 83.6447ZM38.1478 42.0255V58.5162C38.8308 58.5694 39.4621 58.5957 40.0416 58.5953H42.6458C44.562 58.589 46.4656 58.2842 48.2886 57.6921C49.8519 57.2265 51.249 56.3202 52.3132 55.081C53.339 53.8682 53.852 52.1803 53.8522 50.0172C53.8938 48.4865 53.4966 46.9761 52.7076 45.6653C51.8784 44.3975 50.6798 43.4169 49.2748 42.8564C47.4405 42.1415 45.481 41.8052 43.5139 41.8674C42.2511 41.8674 41.1332 41.8805 40.1602 41.9068C39.1859 41.9341 38.5152 41.9736 38.1478 42.0255Z" fill="#31A8FF"/>
<path d="M95.0975 55.5176C93.6145 54.7536 92.0349 54.1947 90.4021 53.856C88.6027 53.4421 86.7632 53.2298 84.9173 53.2229C83.9189 53.1959 82.9217 53.3158 81.9579 53.5791C81.3444 53.716 80.7992 54.0664 80.419 54.5681C80.1618 54.9693 80.0248 55.4362 80.0245 55.9132C80.0389 56.3759 80.2053 56.821 80.498 57.1792C80.9589 57.7198 81.5222 58.1636 82.1551 58.4847C83.2803 59.0922 84.4397 59.6339 85.6274 60.1068C88.276 60.9958 90.8068 62.2045 93.164 63.7069C94.7698 64.723 96.0986 66.1233 97.0309 67.7818C97.815 69.3522 98.2076 71.0899 98.1753 72.8458C98.2225 75.1643 97.5617 77.442 96.2814 79.3735C94.9106 81.3341 93.0067 82.8584 90.7965 83.7647C88.4019 84.8194 85.4425 85.347 81.9185 85.3473C79.6797 85.37 77.4447 85.1578 75.2499 84.7144C73.5208 84.3964 71.8375 83.8649 70.2387 83.1318C70.0661 83.0425 69.9226 82.9058 69.8248 82.7377C69.7269 82.5695 69.6789 82.3768 69.6863 82.1823V73.637C69.6768 73.5533 69.6902 73.4687 69.7249 73.3919C69.7597 73.3153 69.8146 73.2496 69.8837 73.2017C69.9515 73.1633 70.0294 73.1465 70.1068 73.1537C70.1844 73.1607 70.2579 73.1914 70.3177 73.2414C72.2058 74.3576 74.2559 75.1718 76.3942 75.6547C78.279 76.1283 80.2122 76.3805 82.1551 76.4063C83.9961 76.4063 85.3509 76.1689 86.2193 75.6942C86.6116 75.5142 86.9433 75.2241 87.1744 74.859C87.4056 74.4939 87.5261 74.0694 87.5215 73.637C87.5215 72.952 87.127 72.2928 86.3379 71.6588C85.5487 71.0259 83.9441 70.261 81.5238 69.3642C79.0459 68.4995 76.6964 67.3018 74.5396 65.8038C72.9971 64.7281 71.7268 63.3054 70.8306 61.6497C70.0545 60.0906 69.6621 58.3677 69.6863 56.6253C69.6819 54.5317 70.2555 52.4778 71.3436 50.691C72.584 48.7234 74.3654 47.1571 76.4732 46.181C78.7877 45.0212 81.6812 44.4411 85.1542 44.4402C87.1879 44.4238 89.2198 44.5693 91.2306 44.8753C92.6869 45.0606 94.1104 45.4466 95.4611 46.0228C95.5682 46.0535 95.6667 46.1089 95.7489 46.1843C95.831 46.2599 95.8947 46.3535 95.9346 46.4579C95.9879 46.6511 96.0144 46.8508 96.0135 47.0513V55.0428C96.019 55.1358 95.9999 55.2286 95.9585 55.3119C95.9169 55.3953 95.8543 55.4661 95.7768 55.5176C95.6713 55.5702 95.555 55.5977 95.4372 55.5977C95.3193 55.5977 95.2031 55.5702 95.0975 55.5176Z" fill="#31A8FF"/>
</g>
</svg>
