<svg width="120" height="120" viewBox="0 0 120 120" fill="none" xmlns="http://www.w3.org/2000/svg">
<g clip-path="url(#clip0_186_255)">
<path d="M99.7784 24.3679C99.6959 23.7729 99.1714 23.4436 98.7379 23.4074C98.3052 23.3715 89.1482 22.697 89.1482 22.697C89.1482 22.697 82.7885 16.423 82.0905 15.7286C81.3921 15.0346 80.028 15.2457 79.4986 15.4005C79.4207 15.4234 78.1091 15.8256 75.9396 16.4927C73.8152 10.418 70.0659 4.83563 63.47 4.83563C63.288 4.83563 63.1005 4.84296 62.9131 4.85356C61.0372 2.38838 58.7135 1.31738 56.7064 1.31738C41.3414 1.31738 34.0008 20.4043 31.6992 30.1036C25.7288 31.942 21.4874 33.2489 20.9456 33.418C17.613 34.4568 17.5076 34.5612 17.07 37.6817C16.7407 40.0441 8.02081 107.055 8.02081 107.055L75.9679 119.705L112.784 111.791C112.784 111.791 99.8596 24.9629 99.7784 24.3679ZM72.1842 17.6469L66.4348 19.4152C66.4368 19.0125 66.4389 18.6164 66.4389 18.1832C66.4389 14.4078 65.9115 11.368 65.0654 8.95824C68.464 9.38208 70.7274 13.2247 72.1842 17.6469ZM60.8494 9.70688C61.7943 12.0596 62.4087 15.436 62.4087 19.9922C62.4087 20.2253 62.4066 20.4385 62.4046 20.6541C58.6655 21.8049 54.6025 23.0544 50.5305 24.308C52.8169 15.5395 57.1026 11.3044 60.8494 9.70688ZM56.2844 5.41269C56.9476 5.41269 57.6156 5.63643 58.255 6.07371C53.3308 8.37628 48.0526 14.1755 45.8236 25.7564L36.4377 28.645C39.0485 19.8117 45.2482 5.41269 56.2844 5.41269Z" fill="#95BF46"/>
<path d="M98.7379 23.4074C98.3052 23.3715 89.1482 22.6971 89.1482 22.6971C89.1482 22.6971 82.7885 16.4231 82.0905 15.7286C81.8293 15.4703 81.477 15.3378 81.1087 15.2808L75.9712 119.704L112.784 111.791C112.784 111.791 99.8596 24.963 99.7784 24.368C99.6959 23.773 99.1714 23.4437 98.7379 23.4074Z" fill="#5E8E3E"/>
<path d="M63.47 43.6219L58.9304 57.0404C58.9304 57.0404 54.9531 54.931 50.0777 54.931C42.9302 54.931 42.5705 59.3882 42.5705 60.5113C42.5705 66.6398 58.6471 68.988 58.6471 83.343C58.6471 94.637 51.4385 101.909 41.7187 101.909C30.055 101.909 24.0903 94.6961 24.0903 94.6961L27.2134 84.4426C27.2134 84.4426 33.3446 89.6733 38.5182 89.6733C41.8988 89.6733 43.2739 87.0284 43.2739 85.0958C43.2739 77.1016 30.0846 76.745 30.0846 63.609C30.0846 52.553 38.0703 41.854 54.1903 41.854C60.4015 41.854 63.47 43.6219 63.47 43.6219Z" fill="white"/>
</g>
<defs>
<clipPath id="clip0_186_255">
<rect width="105" height="119" fill="white" transform="translate(8 1)"/>
</clipPath>
</defs>
</svg>
