<svg width="120" height="120" viewBox="0 0 120 120" fill="none" xmlns="http://www.w3.org/2000/svg">
<mask id="mask0_186_255" style="mask-type:luminance" maskUnits="userSpaceOnUse" x="20" y="1" width="80" height="119">
<path d="M99.3333 1H20V120H99.3333V1Z" fill="white"/>
</mask>
<g mask="url(#mask0_186_255)">
<path d="M39.8333 120C50.7813 120 59.6667 111.115 59.6667 100.167V80.3335H39.8333C28.8853 80.3335 20 89.2188 20 100.167C20 111.115 28.8853 120 39.8333 120Z" fill="#0ACF83"/>
<path d="M20 60.4998C20 49.5518 28.8853 40.6665 39.8333 40.6665H59.6667V80.3332H39.8333C28.8853 80.3332 20 71.4478 20 60.4998Z" fill="#A259FF"/>
<path d="M20 20.8333C20 9.88533 28.8853 1 39.8333 1H59.6667V40.6667H39.8333C28.8853 40.6667 20 31.7813 20 20.8333Z" fill="#F24E1E"/>
<path d="M59.6667 1H79.5002C90.4482 1 99.3335 9.88533 99.3335 20.8333C99.3335 31.7813 90.4482 40.6667 79.5002 40.6667H59.6667V1Z" fill="#FF7262"/>
<path d="M99.3335 60.4998C99.3335 71.4478 90.4482 80.3332 79.5002 80.3332C68.5522 80.3332 59.6667 71.4478 59.6667 60.4998C59.6667 49.5518 68.5522 40.6665 79.5002 40.6665C90.4482 40.6665 99.3335 49.5518 99.3335 60.4998Z" fill="#1ABCFE"/>
</g>
</svg>
