<svg width="120" height="121" viewBox="0 0 120 121" fill="none" xmlns="http://www.w3.org/2000/svg">
<g clip-path="url(#clip0_35_1103)">
<path d="M7 99.4612C7 106.939 13.1194 113 20.6678 113H99.3318C106.881 113 113 106.938 113 99.4612V21.5393C113 14.0609 106.881 8 99.3322 8H20.6682C13.1186 8 7 14.0617 7 21.5388V99.4607V99.4612Z" fill="#563D7C"/>
<path d="M50.956 54.4453V39.5759H64.1692C65.4279 39.5759 66.6411 39.6796 67.8096 39.8876C68.9781 40.0951 70.012 40.4659 70.911 41.0004C71.8095 41.5348 72.5287 42.2768 73.0682 43.2263C73.6073 44.1762 73.8773 45.3931 73.8773 46.8767C73.8773 49.548 73.0682 51.4774 71.4501 52.6644C69.8323 53.8518 67.7649 54.4453 65.2478 54.4453H50.956V54.4453ZM36.8436 28.7129V92.2871H67.9446C70.8211 92.2871 73.6227 91.9311 76.3493 91.2187C79.0759 90.5062 81.5027 89.4082 83.6301 87.9243C85.7572 86.4403 87.4503 84.5257 88.7086 82.1813C89.9674 79.8364 90.5963 77.0613 90.5963 73.8559C90.5963 69.8786 89.6224 66.4805 87.6751 63.6611C85.7274 60.8413 82.7759 58.8676 78.8208 57.7396C81.6973 56.3746 83.8699 54.6233 85.3381 52.4864C86.806 50.3495 87.5401 47.6785 87.5401 44.4727C87.5401 41.5048 87.0457 39.0119 86.0569 36.9935C85.0682 34.9756 83.6749 33.3579 81.877 32.141C80.0795 30.924 77.9223 30.0484 75.4052 29.5143C72.8885 28.9799 70.1019 28.7129 67.0457 28.7129H36.8436V28.7129ZM50.956 81.4241V63.9724H66.3265C69.3827 63.9724 71.8397 64.6696 73.6976 66.065C75.5551 67.4599 76.4842 69.7896 76.4842 73.0545C76.4842 74.7168 76.1994 76.0818 75.63 77.1503C75.0607 78.2188 74.2968 79.0649 73.3378 79.6879C72.3792 80.3114 71.2704 80.7564 70.012 81.0238C68.7533 81.2904 67.4353 81.4241 66.0569 81.4241H50.956V81.4241Z" fill="white"/>
</g>
<defs>
<clipPath id="clip0_35_1103">
<rect width="106" height="105" fill="white" transform="translate(7 8)"/>
</clipPath>
</defs>
</svg>
