<svg width="120" height="121" viewBox="0 0 120 121" fill="none" xmlns="http://www.w3.org/2000/svg">
<path d="M96.9008 42.7027C95.6983 42.2886 94.4857 41.905 93.2639 41.5522C93.4692 40.7106 93.6581 39.8791 93.8258 39.0622C96.5791 25.6483 94.7791 14.8417 88.6313 11.2837C82.7368 7.87272 73.0969 11.4294 63.3611 19.9334C62.4016 20.773 61.4634 21.6368 60.5474 22.5239C59.9342 21.934 59.3101 21.3555 58.6756 20.7888C48.472 11.6961 38.2445 7.86386 32.1033 11.4321C26.2141 14.8537 24.4703 25.0126 26.949 37.7253C27.1956 38.9844 27.4741 40.2369 27.7841 41.4818C26.3364 41.8947 24.9395 42.3341 23.6026 42.8019C11.6397 46.9881 4 53.5482 4 60.3528C4 67.3808 12.2015 74.4299 24.6614 78.7043C25.6715 79.0494 26.6901 79.3692 27.7161 79.6633C27.3829 81.0041 27.0871 82.354 26.829 83.7113C24.4659 96.2034 26.3112 106.122 32.1845 109.522C38.2507 113.033 48.4322 109.425 58.3458 100.727C59.1497 100.02 59.9359 99.2924 60.7036 98.5459C61.6956 99.5065 62.7141 100.439 63.7579 101.343C73.3612 109.636 82.8454 112.985 88.713 109.576C94.7734 106.055 96.7432 95.3994 94.186 82.4355C93.9845 81.4199 93.7586 80.4093 93.5084 79.4046C94.2235 79.192 94.9252 78.9732 95.6094 78.7455C108.563 74.4384 116.991 67.4747 116.991 60.3528C116.991 53.5234 109.104 46.919 96.9008 42.7027V42.7027ZM94.0915 74.1473C93.4736 74.3524 92.8398 74.5504 92.1936 74.7431C90.7636 70.1995 88.8339 65.3683 86.4721 60.3763C88.7258 55.5035 90.5813 50.7339 91.9712 46.2199C93.1271 46.5557 94.2486 46.9097 95.33 47.2831C105.786 50.8961 112.164 56.2371 112.164 60.3528C112.164 64.7366 105.276 70.4276 94.0915 74.1473V74.1473ZM89.4509 83.3764C90.5817 89.1086 90.7428 94.2915 89.9938 98.3435C89.3212 101.984 87.9679 104.411 86.2943 105.384C82.7337 107.453 75.1188 104.764 66.9062 97.6706C65.9354 96.8304 64.988 95.9633 64.0651 95.0703C67.2492 91.5756 70.431 87.513 73.5365 83.0008C78.9989 82.5144 84.1594 81.7188 88.8392 80.633C89.0646 81.5425 89.2686 82.4572 89.4509 83.3764V83.3764ZM42.521 105.026C39.0421 106.259 36.2712 106.295 34.5962 105.325C31.0321 103.262 29.5504 95.298 31.5715 84.615C31.8117 83.3526 32.0868 82.0972 32.3964 80.8501C37.0246 81.8778 42.1476 82.6167 47.6228 83.0623C50.7494 87.4776 54.0231 91.5357 57.3223 95.0893C56.6212 95.7702 55.9034 96.4337 55.1698 97.0792C50.7856 100.925 46.3927 103.654 42.521 105.026V105.026ZM26.223 74.1203C20.7133 72.2301 16.1633 69.7738 13.0445 67.0933C10.2419 64.6848 8.82726 62.2931 8.82726 60.3528C8.82726 56.2234 14.961 50.9563 25.1915 47.3766C26.4331 46.9424 27.7324 46.5327 29.0808 46.1482C30.495 50.7641 32.3496 55.5903 34.5878 60.4707C32.3205 65.4232 30.4394 70.3266 29.0115 74.997C28.075 74.7277 27.1452 74.4354 26.223 74.1203V74.1203ZM31.6862 36.7946C29.5628 25.903 30.973 17.687 34.522 15.6249C38.3019 13.4286 46.6606 16.56 55.4708 24.4115C56.0453 24.9246 56.6105 25.4482 57.1661 25.9818C53.8832 29.5199 50.6395 33.548 47.5407 37.9371C42.2266 38.4314 37.1398 39.2252 32.463 40.2888C32.1749 39.131 31.9159 37.966 31.6862 36.795V36.7946ZM80.4254 48.8738C79.3207 46.9588 78.1751 45.0679 76.9893 43.2023C80.5944 43.6599 84.0486 44.2673 87.2922 45.0097C86.3185 48.1425 85.1048 51.4175 83.6761 54.7753C82.6317 52.7866 81.548 50.8191 80.4254 48.8738V48.8738ZM60.5496 29.4442C62.7759 31.8651 65.0057 34.5677 67.1988 37.5003C62.7498 37.2894 58.2934 37.2885 53.8443 37.4976C56.0397 34.5921 58.2885 31.893 60.5496 29.4442ZM40.5463 48.9071C39.4377 50.8366 38.3742 52.7919 37.3565 54.7713C35.9512 51.4254 34.7485 48.1354 33.7664 44.9583C36.9902 44.2345 40.428 43.6427 44.0102 43.1935C42.8111 45.0704 41.6562 46.9753 40.5463 48.9066V48.9071ZM44.113 77.8569C40.4121 77.4422 36.9226 76.881 33.6998 76.1766C34.6973 72.9429 35.9265 69.5828 37.3623 66.1652C38.3839 68.1461 39.4519 70.1025 40.5653 72.033C41.7102 74.0175 42.8957 75.9613 44.113 77.8569ZM60.6829 91.6026C58.3948 89.1255 56.113 86.3847 53.8845 83.4371C56.0481 83.5222 58.2536 83.5656 60.4953 83.5656C62.7984 83.5656 65.075 83.5137 67.3158 83.4136C65.1156 86.4144 62.8942 89.1591 60.6829 91.6026ZM83.7215 65.9907C85.2319 69.4459 86.5048 72.7883 87.5155 75.9667C84.2397 76.7171 80.7025 77.3213 76.9756 77.77C78.1699 75.8699 79.3263 73.9461 80.4443 71.9998C81.581 70.0214 82.6737 68.0179 83.7215 65.9907V65.9907ZM76.2633 69.5793C74.5517 72.5634 72.7439 75.4908 70.8428 78.357C67.399 78.6018 63.9477 78.7234 60.4953 78.7216C56.9789 78.7216 53.5588 78.6117 50.2653 78.3973C48.3145 75.5378 46.4722 72.6052 44.7424 69.6059H44.7428C43.0211 66.6224 41.413 63.5744 39.9218 60.4685C41.4092 57.3618 43.0125 54.3124 44.7283 51.3266L44.7278 51.3271C46.443 48.3406 48.2705 45.4206 50.2066 42.5733C53.5667 42.3181 57.0125 42.1853 60.4949 42.1853H60.4953C63.9936 42.1853 67.4438 42.3195 70.8031 42.5764C72.7195 45.4194 74.5354 48.3294 76.2474 51.3009C77.9689 54.2801 79.5934 57.3146 81.1183 60.3998C79.6091 63.5165 77.9897 66.5783 76.2633 69.5793V69.5793ZM86.2206 15.4805C90.004 17.6706 91.4755 26.5023 89.0983 38.0841C88.9464 38.823 88.7761 39.5756 88.5907 40.3389C83.9025 39.2527 78.8122 38.4452 73.4826 37.9433C70.378 33.5059 67.1609 29.4717 63.9314 25.9792C64.7778 25.1603 65.6443 24.3627 66.5302 23.5871C74.8721 16.3013 82.6684 13.4246 86.2206 15.4805V15.4805ZM60.4953 50.2263C66.0676 50.2263 70.585 54.7602 70.585 60.3528C70.585 65.9455 66.0676 70.4794 60.4953 70.4794C54.923 70.4794 50.4056 65.9455 50.4056 60.3528C50.4056 54.7602 54.923 50.2263 60.4953 50.2263V50.2263Z" fill="#00D8FF"/>
</svg>
