<svg width="120" height="121" viewBox="0 0 120 121" fill="none" xmlns="http://www.w3.org/2000/svg">
<path d="M22.1325 102.951L13.7062 8.44702H106.294L97.8562 102.936L59.9437 113.447L22.1325 102.951Z" fill="#E44F26"/>
<path d="M60 105.415L90.6375 96.9208L97.845 16.1758H60V105.415Z" fill="#F1662A"/>
<path d="M60 51.2232H44.6625L43.605 39.3544H60V27.7632H30.9375L31.215 30.8757L34.0613 62.8144H60V51.2232ZM60 81.3244L59.9475 81.3394L47.04 77.8557L46.215 68.6119H34.5787L36.2025 86.8069L59.9475 93.3994L60 93.3844V81.3244Z" fill="#EBEBEB"/>
<path d="M59.9587 51.2232V62.8144H74.2312L72.8887 77.8482L59.9587 81.3357V93.3957L83.7225 86.8069L83.895 84.8494L86.6175 54.3357L86.9025 51.2232H59.9587ZM59.9587 27.7632V39.3544H87.9562L88.1887 36.7519L88.7175 30.8757L88.995 27.7632H59.9587Z" fill="white"/>
</svg>
