<svg width="120" height="121" viewBox="0 0 120 121" fill="none" xmlns="http://www.w3.org/2000/svg">
<path d="M22.1325 102.951L13.71 8.44702H106.29L97.8562 102.936L59.9437 113.447L22.1325 102.951Z" fill="#1572B6"/>
<path d="M60 105.415L90.6375 96.9208L97.845 16.1758H60V105.415Z" fill="#33A9DC"/>
<path d="M60 50.4134H75.3375L76.395 38.5446H60V26.9534H89.0625L88.785 30.0621L85.9387 62.0046H60V50.4134V50.4134Z" fill="white"/>
<path d="M60.0712 80.5146L60.0187 80.5296L47.1112 77.0421L46.2862 67.7983H34.65L36.2737 85.9971L60.015 92.5896L60.0712 92.5746V80.5146V80.5146Z" fill="#EBEBEB"/>
<path d="M74.3512 61.5132L72.9563 77.0344L60.03 80.5219V92.5819L83.79 85.9969L83.9663 84.0394L85.98 61.5132H74.3512V61.5132Z" fill="white"/>
<path d="M60.0413 26.9534V38.5446H32.0438L31.8113 35.9384L31.2825 30.0621L31.005 26.9534H60.0413V26.9534ZM60 50.4134V62.0046H47.2538L47.0213 59.3984L46.4963 53.5221L46.2188 50.4134H60V50.4134Z" fill="#EBEBEB"/>
</svg>
