<svg width="120" height="121" viewBox="0 0 120 121" fill="none" xmlns="http://www.w3.org/2000/svg">
<path d="M7.5 8.44702H112.5V113.447H7.5V8.44702Z" fill="#F5DE19"/>
<path d="M78.0338 90.4783C78.9284 92.2955 80.3183 93.8229 82.0434 94.8845C83.7684 95.9461 85.7583 96.4986 87.7838 96.4783C91.8713 96.4783 94.485 94.4345 94.485 91.6033C94.485 88.2283 91.8 87.0208 87.3 85.052L84.8325 83.9945C77.7075 80.9608 72.9825 77.162 72.9825 69.1295C72.9825 61.7308 78.6075 56.0945 87.4313 56.0945C90.2876 55.8883 93.1416 56.5275 95.637 57.9326C98.1324 59.3377 100.159 61.4465 101.464 63.9958L93.75 68.927C93.2476 67.663 92.3728 66.5815 91.2416 65.8261C90.1104 65.0706 88.7763 64.6769 87.4163 64.697C86.8229 64.6376 86.2236 64.7025 85.6567 64.8875C85.0897 65.0725 84.5675 65.3735 84.1233 65.7715C83.6792 66.1694 83.3228 66.6555 83.0769 67.1988C82.8309 67.7421 82.7009 68.3307 82.695 68.927C82.695 71.8858 84.5288 73.0858 88.7625 74.927L91.23 75.9845C99.615 79.5808 104.355 83.2445 104.355 91.4833C104.355 100.367 97.3763 105.235 88.005 105.235C84.3536 105.467 80.713 104.638 77.5223 102.848C74.3317 101.057 71.7274 98.3812 70.0238 95.1433L78.0338 90.4783ZM43.1775 91.3333C44.7263 94.082 46.1363 96.407 49.5263 96.407C52.7663 96.407 54.8138 95.1395 54.8138 90.2083V56.657H64.68V90.3395C64.68 100.555 58.68 105.205 49.9463 105.205C46.8591 105.373 43.7931 104.604 41.1513 102.998C38.5096 101.391 36.4157 99.0231 35.145 96.2045L43.1775 91.3333Z" fill="black"/>
</svg>
