<svg width="120" height="120" viewBox="0 0 120 120" fill="none" xmlns="http://www.w3.org/2000/svg">
<path d="M105.535 21.605L85.354 11.889C84.2143 11.3395 82.9319 11.1581 81.6845 11.3701C80.4372 11.5821 79.2867 12.1769 78.3925 13.072L12.33 73.3C11.5284 74.0273 11.0487 75.0432 10.9961 76.1243C10.9436 77.2053 11.3227 78.2629 12.05 79.0645C12.1375 79.159 12.225 79.25 12.3195 79.334L17.713 84.234C18.4178 84.8754 19.3249 85.2497 20.277 85.2919C21.229 85.3341 22.1657 85.0416 22.9245 84.465L102.497 24.125C103.098 23.6689 103.814 23.3897 104.566 23.3186C105.317 23.2476 106.073 23.3877 106.749 23.7231C107.424 24.0585 107.993 24.5758 108.391 25.217C108.789 25.8581 109 26.5975 109 27.352V27.1175C109 25.9656 108.675 24.8372 108.062 23.862C107.449 22.8868 106.573 22.1045 105.535 21.605V21.605Z" fill="#0065A9"/>
<path d="M105.535 98.395L85.354 108.115C84.214 108.662 82.9319 108.843 81.6849 108.631C80.4379 108.419 79.2875 107.825 78.3925 106.932L12.33 46.7C11.5284 45.9727 11.0487 44.9568 10.9961 43.8758C10.9436 42.7947 11.3227 41.7371 12.05 40.9355C12.1375 40.841 12.225 40.75 12.3195 40.666L17.713 35.766C18.4185 35.1219 19.3277 34.7459 20.2821 34.7037C21.2365 34.6615 22.1754 34.9557 22.935 35.535L102.497 95.875C103.098 96.3311 103.814 96.6104 104.566 96.6814C105.317 96.7524 106.073 96.6123 106.749 96.2769C107.424 95.9415 107.993 95.4242 108.391 94.783C108.789 94.1419 109 93.4025 109 92.648V92.9C108.996 94.0488 108.669 95.1733 108.057 96.1451C107.444 97.1168 106.57 97.8965 105.535 98.395V98.395Z" fill="#007ACC"/>
<path d="M85.354 108.114C84.214 108.662 82.932 108.843 81.685 108.631C80.438 108.419 79.2876 107.825 78.3925 106.931C78.8952 107.427 79.533 107.764 80.2261 107.899C80.9193 108.034 81.6369 107.962 82.289 107.691C82.9412 107.42 83.4988 106.963 83.8921 106.376C84.2855 105.79 84.4969 105.1 84.5 104.394V15.6059C84.5006 14.8964 84.2906 14.2027 83.8966 13.6127C83.5026 13.0226 82.9424 12.5628 82.2868 12.2915C81.6313 12.0201 80.91 11.9494 80.2142 12.0883C79.5184 12.2273 78.8796 12.5696 78.3785 13.0719C79.2729 12.1771 80.4232 11.5823 81.6703 11.3697C82.9174 11.1572 84.1998 11.3374 85.34 11.8854L105.518 21.5874C106.559 22.0844 107.438 22.8657 108.054 23.8411C108.671 24.8165 108.998 25.9462 109 27.0999V92.8999C109 94.0527 108.675 95.1822 108.061 96.1581C107.448 97.134 106.571 97.9167 105.532 98.4159L85.354 108.114Z" fill="#1F9CF0"/>
</svg>
