<svg width="120" height="120" viewBox="0 0 120 120" fill="none" xmlns="http://www.w3.org/2000/svg">
<path d="M9.3172 59.5083C9.3172 79.3759 20.8632 96.5453 37.6057 104.682L13.6628 39.0811C10.8778 45.3235 9.3172 52.2315 9.3172 59.5083Z" fill="#21759B"/>
<path d="M93.3946 56.9754C93.3946 50.7721 91.1664 46.4762 89.2553 43.1325C86.711 38.9979 84.3262 35.4966 84.3262 31.362C84.3262 26.7481 87.8256 22.4531 92.7547 22.4531C92.9773 22.4531 93.1883 22.4808 93.4051 22.4932C84.4751 14.312 72.5777 9.31689 59.5103 9.31689C41.975 9.31689 26.5476 18.3137 17.5728 31.9408C18.7504 31.9762 19.8602 32.001 20.8028 32.001C26.0529 32.001 34.1797 31.364 34.1797 31.364C36.8854 31.2045 37.2044 35.1785 34.5015 35.4985C34.5015 35.4985 31.7824 35.8185 28.7567 35.977L47.0351 90.3449L58.0194 57.4013L50.1992 35.9751C47.4964 35.8165 44.9358 35.4966 44.9358 35.4966C42.231 35.338 42.5481 31.2026 45.2529 31.362C45.2529 31.362 53.542 31.9991 58.474 31.9991C63.7232 31.9991 71.8509 31.362 71.8509 31.362C74.5586 31.2026 74.8766 35.1766 72.1728 35.4966C72.1728 35.4966 69.4479 35.8165 66.428 35.9751L84.5668 89.9314L89.5734 73.2012C91.7433 66.2588 93.3946 61.2723 93.3946 56.9754Z" fill="#21759B"/>
<path d="M60.3905 63.8987L45.3308 107.659C49.8273 108.981 54.5827 109.704 59.5099 109.704C65.355 109.704 70.9604 108.694 76.178 106.859C76.0433 106.644 75.9211 106.416 75.8208 106.168L60.3905 63.8987Z" fill="#21759B"/>
<path d="M103.553 35.4268C103.769 37.0256 103.891 38.7418 103.891 40.588C103.891 45.6814 102.94 51.4072 100.074 58.5664L84.7426 102.895C99.6647 94.1928 109.702 78.0262 109.702 59.5091C109.703 50.7825 107.473 42.5765 103.553 35.4268Z" fill="#21759B"/>
<path d="M59.5101 1C27.2485 1 1 27.2465 1 59.5082C1 91.7737 27.2485 118.019 59.5101 118.019C91.7708 118.019 118.023 91.7737 118.023 59.5082C118.022 27.2465 91.7708 1 59.5101 1ZM59.5101 115.337C28.7279 115.337 3.68282 90.2923 3.68282 59.5082C3.68282 28.726 28.7269 3.68282 59.5101 3.68282C90.2914 3.68282 115.335 28.726 115.335 59.5082C115.335 90.2923 90.2914 115.337 59.5101 115.337Z" fill="#21759B"/>
</svg>
