<svg width="120" height="120" viewBox="0 0 120 120" fill="none" xmlns="http://www.w3.org/2000/svg">
<g clip-path="url(#clip0_186_255)">
<path d="M111.02 55.8219L65.1758 9.98038C62.5372 7.3402 58.2552 7.3402 55.6134 9.98038L46.0937 19.5001L58.1699 31.5763C60.9762 30.6281 64.1943 31.2642 66.4313 33.5012C68.6789 35.7525 69.3106 38.9981 68.3393 41.8134L79.9775 53.452C82.7932 52.482 86.0421 53.1095 88.291 55.3621C91.434 58.5039 91.434 63.596 88.291 66.7399C85.1471 69.8841 80.055 69.8841 76.9095 66.7399C74.5454 64.3733 73.9613 60.9013 75.1582 57.9888L64.3046 47.1352L64.3034 75.6973C65.0902 76.0863 65.8088 76.6002 66.4313 77.2189C69.5743 80.3607 69.5743 85.4532 66.4313 88.5995C63.2874 91.7422 58.1929 91.7422 55.0535 88.5995C51.9105 85.4532 51.9105 80.3611 55.0535 77.2193C55.8067 76.4658 56.7019 75.869 57.6871 75.4635V46.6352C56.7004 46.2324 55.8048 45.6353 55.0535 44.8793C52.6722 42.5013 52.0996 39.0071 53.3198 36.0831L41.4154 24.1775L9.98105 55.6099C7.33965 58.2525 7.33965 62.5349 9.98105 65.1755L55.8259 111.018C58.4652 113.658 62.7464 113.658 65.3891 111.018L111.019 65.3884C113.66 62.747 113.66 58.4621 111.019 55.8219" fill="#DE4C36"/>
</g>
<defs>
<clipPath id="clip0_186_255">
<rect width="105" height="105" fill="white" transform="translate(8 8)"/>
</clipPath>
</defs>
</svg>
