<svg width="120" height="120" viewBox="0 0 120 120" fill="none" xmlns="http://www.w3.org/2000/svg">
<path fill-rule="evenodd" clip-rule="evenodd" d="M60 7C30.165 7 6 31.3174 6 61.3406C6 85.3863 21.4575 105.696 42.9225 112.896C45.6225 113.372 46.635 111.741 46.635 110.315C46.635 109.024 46.5675 104.745 46.5675 100.194C33 102.707 29.49 96.8657 28.41 93.8091C27.8025 92.2468 25.17 87.424 22.875 86.1335C20.985 85.1146 18.285 82.6013 22.8075 82.5334C27.06 82.4655 30.0975 86.4731 31.11 88.1033C35.97 96.3223 43.7325 94.0128 46.8375 92.5864C47.31 89.0543 48.7275 86.6769 50.28 85.3183C38.265 83.9598 25.71 79.273 25.71 58.4877C25.71 52.5782 27.8025 47.6875 31.245 43.8837C30.705 42.5251 28.815 36.9552 31.785 29.4834C31.785 29.4834 36.3075 28.057 46.635 35.0533C50.955 33.8307 55.545 33.2193 60.135 33.2193C64.725 33.2193 69.315 33.8307 73.635 35.0533C83.9625 27.989 88.485 29.4834 88.485 29.4834C91.455 36.9552 89.565 42.5251 89.025 43.8837C92.4675 47.6875 94.56 52.5102 94.56 58.4877C94.56 79.3409 81.9375 83.9598 69.9225 85.3183C71.88 87.0165 73.5675 90.2769 73.5675 95.3713C73.5675 102.639 73.5 108.481 73.5 110.315C73.5 111.741 74.5125 113.44 77.2125 112.896C87.9323 109.254 97.2473 102.321 103.846 93.0726C110.446 83.8242 113.997 72.7262 114 61.3406C114 31.3174 89.835 7 60 7Z" fill="black"/>
</svg>
