<svg width="120" height="120" viewBox="0 0 120 120" fill="none" xmlns="http://www.w3.org/2000/svg">
<path fill-rule="evenodd" clip-rule="evenodd" d="M107.451 91.1738L113 91.204C113 91.204 102.683 105.03 101.841 106.157C101.567 106.522 101.151 106.916 100.941 107.403C100.408 108.63 99.8606 111.32 99.8606 111.32L94.7832 111.345C94.7832 111.345 95.5732 108.541 95.5407 107.047C95.512 105.742 94.8386 104.439 94.4608 103.131C94.0791 101.807 93.5608 99.2146 93.5608 99.2146H98.7807L99.5005 102.063L107.451 91.1738Z" fill="#1A1918"/>
<path fill-rule="evenodd" clip-rule="evenodd" d="M96.943 94.0898C97.967 94.7005 98.5954 98.0685 98.5954 98.0685C98.5954 98.0685 93.237 98.1466 90.321 98.1466H87.8012L84.7413 111.32H80.0616C80.0616 111.32 82.9738 97.0039 83.6614 94.4085C83.8845 93.5684 85.1878 93.7124 87.389 93.7124H90.9042C93.174 93.7124 95.827 93.4259 96.943 94.0898Z" fill="#1A1918"/>
<path fill-rule="evenodd" clip-rule="evenodd" d="M75.157 100.505C75.157 100.505 75.3028 99.6597 74.662 98.6806C74.1149 97.8458 73.6093 97.6517 72.1693 97.6073C68.1033 97.4809 68.1823 100.461 68.1823 100.461L75.157 100.505ZM79.5668 97.0928C80.1627 99.2184 79.0269 104.213 79.0269 104.213C79.0269 104.213 73.096 104.115 69.8474 104.213C68.8374 104.244 67.6281 104.105 67.3275 104.569C66.9045 105.221 67.482 106.223 67.9717 106.647C68.5352 107.134 69.6329 107.19 70.0273 107.24C72.6641 107.571 78.1828 107.325 78.1828 107.325L77.2269 111.512C77.2269 111.512 69.4281 111.898 65.5275 110.978C64.7573 110.796 64.0355 110.43 63.5476 109.91C63.4144 109.767 63.2991 109.573 63.1731 109.406C63.0724 109.272 62.7792 108.833 62.6476 108.486C61.7567 106.138 62.752 101.639 63.7275 99.2289C63.8408 98.9495 63.9831 98.5954 64.1328 98.2943C64.3198 97.9189 64.4781 97.4952 64.6275 97.2708C64.7281 97.116 64.8526 97.0162 64.9571 96.8702C65.0775 96.6975 65.2178 96.5302 65.3476 96.3809C65.7074 95.9677 66.116 95.6757 66.6074 95.3128C68.2326 94.1093 71.1738 93.1747 74.707 93.5326C76.0372 93.6678 78.0461 94.1377 79.0269 95.4908C79.2896 95.8521 79.4192 96.5694 79.5668 97.0928Z" fill="#1A1918"/>
<path fill-rule="evenodd" clip-rule="evenodd" d="M58.103 93.6961L62.6406 93.6694C62.6406 93.6694 60.1118 105.534 58.8231 111.32H53.6032C49.9549 111.32 46.706 111.766 45.3237 109.183C43.9828 106.675 45.2625 102.551 45.8637 99.7485C46.2885 97.7655 47.1832 93.7122 47.1832 93.7122L51.8845 93.6694C51.8845 93.6694 50.5561 99.98 50.0034 103.131C49.8055 104.259 49.3971 105.322 49.8235 106.157C50.2285 106.951 50.7954 107.008 52.5233 107.047C53.0706 107.06 54.8632 107.047 54.8632 107.047L58.103 93.6961Z" fill="#1A1918"/>
<path fill-rule="evenodd" clip-rule="evenodd" d="M36.8638 102.241C37.339 100.571 38.0319 98.7608 37.9437 97.2565C37.8484 95.6474 36.4842 94.1823 35.604 93.8744C32.9528 92.9486 30.4707 94.2428 29.4843 95.2983C28.208 96.6657 27.7761 98.2625 27.3243 100.461C26.9879 102.093 26.7124 103.816 27.3243 105.089C28.4077 107.339 31.7862 106.848 35.4238 106.869C35.9638 105.438 36.4102 103.831 36.8638 102.241ZM43.1636 95.6544C43.682 99.382 41.6932 103.496 40.3233 107.074C41.7201 107.199 42.9441 107.055 43.0322 107.158C43.124 107.291 42.0962 111.428 41.7379 111.439C40.6293 111.468 36.9558 111.498 35.4238 111.498C30.4255 111.498 25.7494 111.82 23.3647 109.362C22.3963 108.363 21.7268 106.65 21.5647 105.445C21.2946 103.434 21.633 101.219 22.1046 99.3928C22.5313 97.7443 23.0783 96.1884 23.9047 94.7643C26.005 91.1382 29.6589 88.4467 35.7839 89.068C36.9718 89.1891 38.678 89.7035 39.7437 90.3139C39.8174 90.3569 40.0751 90.5597 40.1343 90.5954C41.5742 91.5016 42.8864 93.6643 43.1636 95.6544Z" fill="#1A1918"/>
<path fill-rule="evenodd" clip-rule="evenodd" d="M21.0481 93.7177C20.7458 95.0795 20.4434 96.623 20.1248 97.9687H15.085C15.4756 96.477 15.7744 94.994 16.1649 93.6963C17.7777 93.6963 19.2771 93.7177 21.0481 93.7177Z" fill="#1A1918"/>
<path fill-rule="evenodd" clip-rule="evenodd" d="M14.9052 99.2146H19.7648C19.1295 102.693 17.8715 108.304 16.8851 112.21C16.2676 114.654 15.8555 116.438 14.1851 117.728C14.0357 117.844 13.9495 117.789 13.8253 117.906C13.5173 118.196 12.0936 118.533 11.3054 118.618C10.0237 118.755 8.57489 118.636 7 118.604C7.41214 117.114 7.87841 115.325 8.24558 113.99C12.0847 114.449 12.182 110.86 12.9253 107.403C13.3555 105.406 14.6587 100.016 14.9052 99.2146Z" fill="#1A1918"/>
<path fill-rule="evenodd" clip-rule="evenodd" d="M96.7772 58.8785L96.4248 59.7913C90.4209 71.481 79.7842 78.6538 64.6117 78.9701C57.5188 79.1162 50.7603 77.2966 46.3457 75.3171C36.8178 71.0366 28.8043 63.0979 24.4276 54.616C18.1495 42.457 17.0175 25.5431 30.0713 12.9097C30.2724 12.9097 28.488 15.649 28.6891 15.649L28.3299 16.818C18.9231 46.2682 47.9041 71.5059 76.0762 68.6196C82.8467 67.9259 91.4808 64.2179 96.7772 58.8785Z" fill="#21609B"/>
<path fill-rule="evenodd" clip-rule="evenodd" d="M79.7292 46.7005C86.8169 46.7495 94.2201 43.4369 98.6037 38.7859C94.7685 48.5219 83.6633 54.7801 68.7701 52.7895C56.3009 51.1211 44.4221 38.5727 43.1981 25.9995C42.3033 16.8489 45.4931 11.3874 50.7483 4.76294C48.9218 8.22772 48.2393 10.9 48.0691 12.6045C46.0724 32.3987 63.8811 46.5974 79.7292 46.7005Z" fill="#21609B"/>
<path fill-rule="evenodd" clip-rule="evenodd" d="M97.8921 22.1153C96.7902 24.6424 90.446 29.4154 87.6448 30.0119C76.5516 32.3747 69.4467 27.1144 65.7258 21.1286C65.1722 20.2338 64.1494 17.7927 63.9663 17.1713C62.5231 12.2642 63.1867 4.84212 67.4921 1C66.1951 4.65302 66.006 8.89655 66.6884 11.6548C67.1019 13.3232 68.362 16.2344 69.6229 18.0661C71.9179 21.4028 73.373 22.2133 76.3204 23.9848C77.6475 24.7825 79.0718 25.422 79.6872 25.5982C82.4815 26.4199 88.3814 28.5876 97.8921 22.1153Z" fill="#21609B"/>
</svg>
