<svg width="120" height="120" viewBox="0 0 120 120" fill="none" xmlns="http://www.w3.org/2000/svg">
<g clip-path="url(#clip0_186_255)">
<path d="M77.3039 4.92404C78.2591 6.10747 78.746 7.70423 79.72 10.8978L101 80.663C93.0069 76.5233 84.4279 73.6245 75.5589 72.0667L61.7034 25.3386C61.5929 24.9659 61.3644 24.639 61.0522 24.4066C60.74 24.1743 60.3608 24.049 59.9714 24.0497C59.5819 24.0503 59.2031 24.1767 58.8917 24.41C58.5802 24.6433 58.3528 24.971 58.2434 25.3441L44.5558 72.0434C35.6467 73.5937 27.0281 76.497 19 80.6521L40.3841 10.8815C41.3613 7.69368 41.8501 6.09947 42.8053 4.91829C43.6485 3.87558 44.7453 3.06579 45.9911 2.56614C47.4021 2 49.0725 2 52.4131 2H67.6865C71.0316 2 72.7039 2 74.1165 2.5671C75.3633 3.06797 76.4606 3.87944 77.3036 4.92404H77.3039Z" fill="black"/>
<path d="M79.8503 83.983C76.3423 86.9765 69.3403 89.0182 61.2748 89.0182C51.3758 89.0182 43.0788 85.9426 40.8773 81.8064C40.09 84.1768 39.9135 86.8901 39.9135 88.6231C39.9135 88.6231 39.3949 97.1337 45.3261 103.053C45.3261 99.9794 47.8229 97.4876 50.9027 97.4876C56.1815 97.4876 56.1751 102.084 56.1706 105.813L56.1703 106.146C56.1703 111.805 59.6361 116.657 64.5657 118.702C63.8069 117.144 63.4139 115.433 63.4164 113.7C63.4164 108.302 66.5917 106.293 70.2823 103.957C73.2186 102.098 76.4813 100.033 78.7296 95.8908C79.9405 93.6593 80.5727 91.1609 80.5688 88.6231C80.5688 87.0055 80.317 85.4465 79.8503 83.983Z" fill="#FF5D01"/>
</g>
<defs>
<clipPath id="clip0_186_255">
<rect width="82" height="117" fill="white" transform="translate(19 2)"/>
</clipPath>
</defs>
</svg>
