<svg width="33" height="33" viewBox="0 0 33 33" fill="none" xmlns="http://www.w3.org/2000/svg">
<g clip-path="url(#clip0_231_507)">
<path d="M16.24 1C14.1073 1 11.9955 1.43049 10.0252 2.26689C8.05489 3.10329 6.26461 4.32921 4.75659 5.87468C1.71099 8.99588 0 13.2291 0 17.6432C0 24.9995 4.66088 31.2407 11.1082 33.4542C11.9202 33.5874 12.18 33.0714 12.18 32.6221V29.8094C7.68152 30.808 6.72336 27.5792 6.72336 27.5792C5.97632 25.6486 4.92072 25.1326 4.92072 25.1326C3.44288 24.1007 5.0344 24.134 5.0344 24.134C6.6584 24.2505 7.51912 25.8483 7.51912 25.8483C8.932 28.378 11.3193 27.6291 12.245 27.2297C12.3911 26.1479 12.8134 25.4156 13.2681 24.9995C9.6628 24.5834 5.87888 23.1521 5.87888 16.811C5.87888 14.9636 6.496 13.4824 7.5516 12.3007C7.3892 11.8846 6.8208 10.1538 7.714 7.90692C7.714 7.90692 9.07816 7.45756 12.18 9.60453C13.463 9.23838 14.8596 9.0553 16.24 9.0553C17.6204 9.0553 19.017 9.23838 20.3 9.60453C23.4018 7.45756 24.766 7.90692 24.766 7.90692C25.6592 10.1538 25.0908 11.8846 24.9284 12.3007C25.984 13.4824 26.6011 14.9636 26.6011 16.811C26.6011 23.1687 22.801 24.5668 19.1794 24.9828C19.7641 25.4988 20.3 26.514 20.3 28.0618V32.6221C20.3 33.0714 20.5598 33.604 21.3881 33.4542C27.8354 31.224 32.48 24.9995 32.48 17.6432C32.48 15.4576 32.0599 13.2934 31.2438 11.2741C30.4277 9.25487 29.2314 7.42014 27.7234 5.87468C26.2154 4.32921 24.4251 3.10329 22.4548 2.26689C20.4845 1.43049 18.3727 1 16.24 1Z" fill="white"/>
</g>
<defs>
<clipPath id="clip0_231_507">
<rect width="32.48" height="32.48" fill="white" transform="translate(0 0.524902)"/>
</clipPath>
</defs>
</svg>
