<svg width="31" height="33" viewBox="0 0 31 33" fill="none" xmlns="http://www.w3.org/2000/svg">
<g clip-path="url(#clip0_35_1217)">
<path d="M28.1043 0.524902H2.68248C1.46471 0.524902 0.479996 1.57147 0.479996 2.8654V30.6533C0.479996 31.9472 1.46471 33.0001 2.68248 33.0001H28.1043C29.3221 33.0001 30.3127 31.9472 30.3127 30.6596V2.8654C30.3127 1.57147 29.3221 0.524902 28.1043 0.524902ZM9.33074 28.1986H4.90245V12.6968H9.33074V28.1986ZM7.1166 10.5846C5.69488 10.5846 4.54703 9.33508 4.54703 7.79378C4.54703 6.25247 5.69488 5.00293 7.1166 5.00293C8.53248 5.00293 9.68034 6.25247 9.68034 7.79378C9.68034 9.32874 8.53248 10.5846 7.1166 10.5846ZM25.9018 28.1986H21.4794V20.6634C21.4794 18.8683 21.4503 16.5532 19.1778 16.5532C16.8763 16.5532 16.5267 18.5131 16.5267 20.5365V28.1986H12.1101V12.6968H16.3519V14.8153H16.4102C16.9987 13.5975 18.4437 12.3099 20.5937 12.3099C25.0745 12.3099 25.9018 15.5193 25.9018 19.6929V28.1986V28.1986Z" fill="white"/>
</g>
<defs>
<clipPath id="clip0_35_1217">
<rect width="29.8327" height="32.4752" fill="white" transform="translate(0.479996 0.524902)"/>
</clipPath>
</defs>
</svg>
