<svg width="172" height="46" viewBox="0 0 172 46" fill="none" xmlns="http://www.w3.org/2000/svg">
<path d="M158.639 32.8855V15.3855H161.889V29.8855H170.864V32.8855H158.639Z" fill="white"/>
<path d="M141.108 32.8855L147.683 15.3855H150.558L157.133 32.8855H153.458L152.283 29.4105H145.858L144.683 32.8855H141.108ZM146.908 26.4105H151.258L149.108 20.0605L146.908 26.4105Z" fill="white"/>
<path d="M133.76 33.2605C132.26 33.2605 130.877 32.9355 129.61 32.2855C128.36 31.6189 127.368 30.4939 126.635 28.9105L129.36 27.4105C129.843 28.2772 130.427 28.9522 131.11 29.4355C131.793 29.9189 132.718 30.1605 133.885 30.1605C135.035 30.1605 135.802 29.9689 136.185 29.5855C136.568 29.1855 136.76 28.6605 136.76 28.0105C136.76 27.5939 136.66 27.2355 136.46 26.9355C136.277 26.6355 135.86 26.3522 135.21 26.0855C134.577 25.8022 133.593 25.5022 132.26 25.1855C130.643 24.8022 129.452 24.1855 128.685 23.3355C127.918 22.4855 127.535 21.4272 127.535 20.1605C127.535 19.1105 127.785 18.1939 128.285 17.4105C128.785 16.6272 129.485 16.0189 130.385 15.5855C131.302 15.1355 132.377 14.9105 133.61 14.9105C134.743 14.9105 135.743 15.0855 136.61 15.4355C137.477 15.7855 138.21 16.2439 138.81 16.8105C139.427 17.3772 139.91 17.9939 140.26 18.6605L137.685 20.5855C137.435 20.1855 137.127 19.7939 136.76 19.4105C136.41 19.0105 135.977 18.6772 135.46 18.4105C134.943 18.1439 134.31 18.0105 133.56 18.0105C132.777 18.0105 132.135 18.1772 131.635 18.5105C131.152 18.8272 130.91 19.3272 130.91 20.0105C130.91 20.2772 130.977 20.5522 131.11 20.8355C131.26 21.1022 131.593 21.3689 132.11 21.6355C132.643 21.9022 133.485 22.1772 134.635 22.4605C136.585 22.9272 137.993 23.6272 138.86 24.5605C139.743 25.4772 140.185 26.6105 140.185 27.9605C140.185 29.6772 139.602 30.9939 138.435 31.9105C137.285 32.8105 135.727 33.2605 133.76 33.2605Z" fill="white"/>
<path d="M112.938 32.8855V15.3855H124.863V18.3855H116.188V22.4605H124.113V25.4605H116.188V29.8855H125.138V32.8855H112.938Z" fill="white"/>
<path d="M106.721 32.8855V15.3855H109.971V32.8855H106.721Z" fill="white"/>
<path d="M87.7844 32.8855V15.3855H91.0344L95.7844 23.6355L100.484 15.3855H103.759V32.8855H100.459V21.0105L96.7094 27.8105H94.8094L91.0594 21.0105V32.8855H87.7844Z" fill="white"/>
<path d="M78.2066 33.2105C75.9733 33.2105 74.2733 32.6438 73.1066 31.5105C71.9566 30.3605 71.3816 28.6272 71.3816 26.3105V15.3855H74.6566V26.1355C74.6566 27.5522 74.9733 28.5605 75.6066 29.1605C76.2566 29.7605 77.1233 30.0605 78.2066 30.0605C79.29 30.0605 80.1483 29.7605 80.7816 29.1605C81.415 28.5605 81.7316 27.5522 81.7316 26.1355V15.3855H85.0066V26.3105C85.0066 28.6272 84.4316 30.3605 83.2816 31.5105C82.1316 32.6438 80.44 33.2105 78.2066 33.2105Z" fill="white"/>
<path d="M57.675 32.8855V15.3855H60.925V29.8855H69.9V32.8855H57.675Z" fill="white"/>
<circle cx="23" cy="23" r="23" fill="#15C196"/>
<path d="M24.0806 3.8889C23.7358 4.01429 23.5582 4.27552 23.5582 4.66213C23.5582 5.12189 23.8403 5.38312 24.3418 5.38312C24.8538 5.38312 25.1255 5.12189 25.1255 4.65168C25.1255 4.33821 25.0733 4.20237 24.8956 4.08744C24.5822 3.89935 24.2791 3.81576 24.0806 3.8889ZM24.6135 4.23372C24.9792 4.43225 24.7703 5.17414 24.3418 5.17414C23.9343 5.17414 23.7044 4.4427 24.0597 4.24417C24.2896 4.10833 24.3627 4.10833 24.6135 4.23372Z" fill="#ECECEC"/>
<path d="M20.2876 3.99339C20.2563 4.04564 20.2667 4.38001 20.3085 4.75618L20.3712 5.43536L20.8205 5.41447C21.4997 5.38312 21.7818 5.15324 21.7818 4.65168C21.7818 4.34866 21.7191 4.20238 21.5519 4.08744C21.3116 3.92025 20.3712 3.85756 20.2876 3.99339ZM21.4475 4.69348C21.4788 4.90246 21.4161 4.9965 21.2176 5.0801C20.8101 5.26818 20.6324 5.14279 20.6324 4.66213C20.6324 4.35911 20.6742 4.23372 20.8205 4.20238C21.0922 4.13968 21.4161 4.38001 21.4475 4.69348Z" fill="#ECECEC"/>
<path d="M27.0586 4.46358C26.9959 4.67256 26.6929 5.72792 26.6929 5.76971C26.6929 5.88465 27.0272 5.76971 27.069 5.64432C27.1631 5.404 27.4034 5.45624 27.5497 5.76971C27.7169 6.11453 27.999 6.23992 27.8945 5.92645C27.8527 5.78016 27.905 5.60253 28.0617 5.39355C28.1871 5.22636 28.2602 5.01738 28.2289 4.92334C28.093 4.57852 27.1526 4.2128 27.0586 4.46358ZM27.8214 5.03828C27.8527 5.23681 27.8109 5.27861 27.5915 5.27861C27.2885 5.27861 27.184 5.16367 27.278 4.91289C27.3825 4.66211 27.7796 4.75615 27.8214 5.03828Z" fill="#ECECEC"/>
<path d="M17.4246 4.56808C16.9126 4.67257 16.8917 4.74571 17.1424 5.58164L17.2992 6.13544L17.6753 6.06229C18.365 5.93691 18.7307 5.50849 18.5531 5.03829C18.3754 4.57853 18.0515 4.44269 17.4246 4.56808ZM18.0306 4.86065C18.3441 5.02784 18.3023 5.57119 17.9575 5.69658C17.6022 5.83241 17.6126 5.83241 17.5082 5.56074C17.2783 4.95469 17.2783 4.88155 17.4664 4.82931C17.7798 4.74571 17.8112 4.75616 18.0306 4.86065Z" fill="#ECECEC"/>
<path d="M30.35 5.19506C30.35 5.2682 30.8516 5.56078 31.4576 5.8429C35.7731 7.85957 39.3571 11.778 40.9663 16.2188C41.7604 18.4027 42.0739 20.1581 42.0843 22.5196C42.0948 24.9751 41.7709 26.9291 41.0081 29.0085C40.7573 29.6667 40.7155 29.8862 40.82 29.9489C40.9767 30.0534 40.9245 30.1474 41.3007 29.1025C42.0739 26.9709 42.3665 25.1945 42.3665 22.6763C42.3665 18.6848 41.3842 15.3933 39.2526 12.2273C37.3196 9.35379 34.9581 7.26397 31.9383 5.75931C30.6322 5.10102 30.35 4.99653 30.35 5.19506Z" fill="#ECECEC"/>
<path d="M14.3212 5.78017C14.2898 5.82197 14.3003 6.21903 14.3316 6.65789C14.3734 7.27439 14.4257 7.44157 14.5302 7.39978C14.6138 7.36843 14.6765 7.25349 14.6765 7.149C14.6765 6.87732 15.1885 6.62655 15.4288 6.77283C15.5542 6.85642 15.6482 6.85642 15.7214 6.78328C15.805 6.69969 15.6587 6.5325 15.2407 6.18769C14.666 5.70703 14.4361 5.60254 14.3212 5.78017ZM14.8854 6.27128C14.9795 6.38622 14.9899 6.46981 14.9063 6.5534C14.7601 6.69969 14.572 6.56385 14.572 6.31307C14.572 6.07275 14.7078 6.05185 14.8854 6.27128Z" fill="#ECECEC"/>
<path d="M11.4373 7.55651C11.4373 7.7237 12.1791 8.72681 12.3045 8.72681C12.4926 8.72681 13.1718 8.13121 13.0882 8.04762C13.0464 8.00582 12.8897 8.04762 12.7538 8.14166C12.3881 8.38199 12.3359 8.36109 12.0224 7.89088C11.7821 7.52517 11.4373 7.32663 11.4373 7.55651Z" fill="#ECECEC"/>
<path d="M9.30565 9.44781C9.2743 9.50005 9.46239 9.78218 9.73406 10.0852L10.2147 10.6181L10.6118 10.2315C11.0715 9.78218 11.0611 9.5523 10.5909 9.89712L10.2879 10.127L9.8908 9.74038C9.47284 9.33287 9.39969 9.29107 9.30565 9.44781Z" fill="#ECECEC"/>
<path d="M7.51886 11.5062C7.1009 11.9556 7.1845 12.4989 7.6965 12.7601C8.33389 13.0945 9.04443 12.4258 8.8041 11.7361C8.60557 11.1719 7.93683 11.0569 7.51886 11.5062ZM8.45928 11.8093C8.66826 12.1332 8.48018 12.4885 8.11446 12.4885C7.60246 12.4885 7.39348 12.0496 7.73829 11.7048C7.95772 11.4958 8.29209 11.5376 8.45928 11.8093Z" fill="#ECECEC"/>
<path d="M5.92016 14.1812C5.86791 14.2544 5.74253 14.4633 5.64848 14.6514C5.4604 15.0276 5.44995 15.0067 6.25453 15.3933C6.63069 15.5605 6.79788 15.6023 6.88147 15.5187C6.96506 15.4351 6.94417 15.3724 6.81878 15.2993C6.53665 15.1425 6.5889 15.0171 6.99641 14.85C7.40392 14.6723 7.49797 14.432 7.1218 14.526C6.93372 14.5783 6.85013 14.5365 6.75608 14.3275C6.66204 14.129 6.55755 14.0558 6.32767 14.0558C6.16049 14.0558 5.98285 14.1185 5.92016 14.1812ZM6.47396 14.4738C6.568 14.6201 6.43216 14.9962 6.28588 14.9962C5.9933 14.9858 5.87836 14.8186 5.9933 14.5887C6.11869 14.3588 6.36947 14.2962 6.47396 14.4738Z" fill="#ECECEC"/>
<path d="M14.4675 22.7808V30.0429H24.1329H33.7982V29.4682V28.8935L29.441 28.8726L25.0733 28.8413L25.0419 26.0409L25.021 23.251H28.8349H32.6488V22.6763V22.1016L28.8663 22.0807L25.0733 22.0494L25.0419 19.3535L25.021 16.6681H29.2529H33.4848V16.0934V15.5187H28.6782H23.8716V22.2061V28.8935L19.7756 28.8726L15.6691 28.8413L15.6378 22.1748L15.6169 15.5187H15.0422H14.4675V22.7808Z" fill="#ECECEC"/>
<path d="M4.69762 17.2219C4.61403 17.3578 4.51998 17.6085 4.47819 17.7757C4.41549 18.0892 4.42594 18.0996 5.05289 18.2668C5.39771 18.3609 5.73207 18.4445 5.79477 18.4445C5.96195 18.4445 5.92016 18.1623 5.74252 18.0892C5.5022 18.0056 5.55444 17.7339 5.82612 17.6503C6.04555 17.5876 6.21273 17.4309 6.21273 17.2742C6.21273 17.2324 6.09779 17.2428 5.95151 17.2951C5.74252 17.3787 5.66938 17.3578 5.58579 17.1906C5.42905 16.8875 4.9066 16.9084 4.69762 17.2219ZM5.35591 17.5876C5.39771 17.8489 5.16783 17.9847 4.9275 17.8489C4.81256 17.7862 4.80211 17.7026 4.8648 17.5249C4.97974 17.2219 5.31411 17.2533 5.35591 17.5876Z" fill="#ECECEC"/>
<path d="M4.77076 20.2626C3.78855 20.5969 3.76766 20.7328 4.62448 21.2448C5.19918 21.5896 5.33501 21.6314 5.36636 21.4955C5.38726 21.4015 5.34546 21.3075 5.28277 21.2866C5.22007 21.2657 5.16783 21.0671 5.16783 20.8477C5.16783 20.5447 5.20962 20.4402 5.37681 20.3984C5.49175 20.367 5.58579 20.273 5.58579 20.179C5.58579 19.97 5.58579 19.97 4.77076 20.2626ZM4.8857 20.8059C4.85436 20.8895 4.76032 20.9417 4.67672 20.9104C4.59313 20.879 4.49909 20.8477 4.47819 20.8477C4.34235 20.8477 4.46774 20.6492 4.62448 20.6074C4.87525 20.5551 4.95885 20.6178 4.8857 20.8059Z" fill="#ECECEC"/>
<path d="M4.67672 23.2719C4.63492 23.3451 4.55133 23.5436 4.48864 23.7212C4.3528 24.1183 4.17517 24.0765 4.16472 23.6481C4.16472 23.2719 3.96619 23.1361 3.88259 23.46C3.80945 23.7526 3.94529 24.2019 4.15427 24.3377C4.40505 24.5049 4.67672 24.2959 4.76031 23.8884C4.84391 23.4913 4.9066 23.4182 5.06334 23.5122C5.14693 23.5645 5.16783 23.7317 5.13648 23.9407C5.09468 24.2019 5.11558 24.2959 5.23052 24.2959C5.31411 24.2959 5.38726 24.1914 5.38726 24.0556C5.4186 23.4391 5.28277 23.1465 4.9484 23.1465C4.84391 23.1465 4.72897 23.2092 4.67672 23.2719Z" fill="#ECECEC"/>
<path d="M5.44995 26.3858C5.5022 26.7201 5.47085 26.8037 5.34546 26.8037C5.25142 26.8037 5.15738 26.6783 5.11558 26.4902C5.02154 26.0409 4.81256 26.0932 4.8857 26.5425C4.93795 26.8455 4.91705 26.9082 4.74987 26.9082C4.61403 26.9082 4.54089 26.8037 4.48864 26.532C4.44684 26.2708 4.38415 26.1872 4.31101 26.2604C4.17517 26.3962 4.31101 27.2217 4.47819 27.2844C4.65582 27.3575 5.84702 27.0649 5.84702 26.95C5.82612 26.5425 5.64848 25.9678 5.53354 25.9678C5.42905 25.9678 5.40816 26.0827 5.44995 26.3858Z" fill="#ECECEC"/>
<path d="M5.63803 28.9144C5.52309 28.9771 5.3977 29.0816 5.35591 29.1443C5.22007 29.3428 5.26187 29.928 5.42905 30.2519L5.58579 30.5654L6.13959 30.3459C6.43216 30.2205 6.74563 30.1056 6.81878 30.0743C7.08 29.9698 6.64114 29.0398 6.25453 28.8935C5.93061 28.7681 5.89926 28.7681 5.63803 28.9144ZM6.42171 29.4055C6.5889 29.719 6.55755 29.7817 6.16049 29.9698C5.69028 30.1997 5.70073 30.1997 5.58579 29.8757C5.4395 29.4996 5.61714 29.207 6.00375 29.207C6.20228 29.207 6.34857 29.2801 6.42171 29.4055Z" fill="#ECECEC"/>
<path d="M38.6048 31.8297C38.4794 32.07 38.3958 32.2685 38.4167 32.279C38.657 32.4566 39.5661 32.9686 39.6288 32.9686C39.7228 32.9686 40.1722 32.1223 40.1722 31.9446C40.1722 31.7774 39.8064 31.5998 39.6184 31.6729C39.5348 31.7043 39.4407 31.652 39.4094 31.5685C39.3676 31.4744 39.2213 31.4013 39.0855 31.4013C38.8765 31.4013 38.772 31.4953 38.6048 31.8297ZM39.3362 31.7252C39.3362 31.8819 39.0959 32.3417 39.0123 32.3417C38.8556 32.3417 38.6048 32.2163 38.6048 32.1327C38.6048 31.9446 39.0437 31.5162 39.1795 31.5789C39.2631 31.6103 39.3362 31.6729 39.3362 31.7252ZM39.9214 31.9655C39.9527 32.0491 39.9005 32.2581 39.8064 32.4357C39.6706 32.7179 39.6079 32.7492 39.4407 32.6552C39.1899 32.5193 39.1899 32.5193 39.3885 32.1327C39.5557 31.7983 39.8273 31.7252 39.9214 31.9655Z" fill="#ECECEC"/>
<path d="M7.17405 32.0073C7.08 32.07 7.22629 32.373 7.74874 33.1567C9.26386 35.4033 11.3328 37.399 13.6316 38.8201C15.3557 39.8859 17.2365 40.6382 19.5457 41.192C20.7474 41.4742 20.8937 41.4846 23.5059 41.4846C26.1182 41.4846 26.2645 41.4742 27.4661 41.192C28.1453 41.0249 29.1798 40.7323 29.7649 40.5233C31.186 40.0322 32.9623 39.1754 32.9623 38.9768C32.9623 38.8933 32.931 38.8201 32.8892 38.8201C32.8474 38.8201 32.3667 39.05 31.8234 39.3321C26.1913 42.2056 19.1696 41.8817 13.7152 38.5066C11.3223 37.0229 8.93994 34.63 7.64425 32.4148C7.48752 32.1432 7.34123 31.9237 7.33078 31.9237C7.32033 31.9237 7.24719 31.9655 7.17405 32.0073Z" fill="#ECECEC"/>
<path d="M36.9956 34.0762C36.6508 34.5046 36.5986 34.3897 37.4972 35.1002L37.8838 35.4033L38.1868 35.048C38.354 34.8495 38.4899 34.6614 38.5003 34.6091C38.5003 34.4628 38.3749 34.536 38.1659 34.7972C37.9361 35.0898 37.748 35.1316 37.5703 34.9226C37.4867 34.8077 37.5076 34.7345 37.6644 34.5882C37.7793 34.4837 37.8734 34.327 37.8734 34.233C37.8734 34.118 37.7898 34.1598 37.633 34.3688C37.4658 34.5778 37.33 34.6509 37.2151 34.6091C36.9747 34.5151 36.9956 34.2957 37.2464 34.0658C37.3614 33.9613 37.4554 33.8359 37.4554 33.7837C37.4554 33.606 37.2882 33.7105 36.9956 34.0762Z" fill="#ECECEC"/>
<path d="M35.4701 35.7376C35.4701 35.7585 35.5641 36.0302 35.6791 36.3228C35.8045 36.6153 35.8776 36.8766 35.8671 36.8975C35.8462 36.9079 35.6059 36.793 35.3342 36.6153C34.8745 36.3332 34.6342 36.2392 34.6342 36.3646C34.6342 36.3855 34.7282 36.6571 34.8431 36.9497C34.9685 37.2423 35.0417 37.5035 35.0208 37.5244C34.9999 37.5453 34.7595 37.4199 34.4879 37.2527C33.955 36.9079 33.9027 36.887 33.9027 37.0333C33.9027 37.1796 35.1357 37.9006 35.2507 37.8379C35.3029 37.7961 35.2611 37.5349 35.1462 37.2423C35.0312 36.9497 34.9581 36.6885 34.979 36.6676C34.9999 36.6467 35.2298 36.7616 35.5014 36.9393C35.794 37.1169 36.0134 37.2005 36.0552 37.1378C36.1284 37.0124 35.6791 35.6854 35.5537 35.6854C35.5119 35.6854 35.4701 35.7063 35.4701 35.7376Z" fill="#ECECEC"/>
</svg>
