<svg width="31" height="33" viewBox="0 0 31 33" fill="none" xmlns="http://www.w3.org/2000/svg">
<g clip-path="url(#clip0_231_505)">
<path d="M9.6977 29.9555C20.9525 29.9555 27.1102 19.8025 27.1102 11.0006C27.1102 10.7152 27.1044 10.4234 27.0927 10.138C28.2905 9.19496 29.3243 8.02692 30.1453 6.68873C29.0297 7.22904 27.8453 7.58191 26.6324 7.7353C27.9094 6.902 28.8656 5.59293 29.3237 4.05075C28.1223 4.82581 26.8085 5.37255 25.4385 5.66754C24.5154 4.59985 23.295 3.89291 21.9658 3.65602C20.6366 3.41913 19.2728 3.66549 18.0851 4.35701C16.8975 5.04852 15.9522 6.14667 15.3953 7.48169C14.8385 8.8167 14.7012 10.3142 15.0046 11.7427C12.572 11.6098 10.1921 10.9219 8.01939 9.72354C5.84664 8.5252 3.92947 6.84318 2.39219 4.78652C1.61086 6.25295 1.37177 7.98821 1.72352 9.63964C2.07526 11.2911 2.99145 12.7347 4.28587 13.6773C3.31409 13.6437 2.36361 13.3589 1.51294 12.8463V12.9288C1.51207 14.4677 2.0008 15.9595 2.89604 17.1505C3.79128 18.3415 5.03779 19.1582 6.42368 19.4619C5.52348 19.73 4.57869 19.7691 3.66241 19.5761C4.05348 20.8995 4.81436 22.0571 5.83886 22.8872C6.86336 23.7172 8.10036 24.1784 9.37723 24.2063C7.20949 26.06 4.5317 27.0654 1.77514 27.0606C1.28629 27.0598 0.797922 27.0272 0.312645 26.9629C3.11301 28.9186 6.37058 29.9574 9.6977 29.9555Z" fill="white"/>
</g>
<defs>
<clipPath id="clip0_231_505">
<rect width="29.8327" height="32.4752" fill="white" transform="translate(0.312653 0.524902)"/>
</clipPath>
</defs>
</svg>
